<svg width="37" height="48" viewBox="0 0 37 48" fill="#863288" xmlns="http://www.w3.org/2000/svg">
<path d="M24.5631 0.09375C21.7631 0.09375 19.1822 1.18733 17.2572 3.19983C16.2072 4.29358 15.4629 5.56216 14.9817 6.96216C13.5379 5.43091 11.482 4.42517 9.20703 4.42517C4.87578 4.42517 1.33203 7.96892 1.33203 12.3002C1.33203 15.0127 2.73203 17.4189 4.83203 18.8627V20.875H1.76953C1.02578 20.875 0.457031 21.4438 0.457031 22.1875C0.457031 22.9312 1.02578 23.5 1.76953 23.5H4.83203V33.125C4.83203 33.8688 5.40078 34.4375 6.14453 34.4375H15.0253L11.5253 44.9375H1.81311C1.06936 44.9375 0.50061 45.5062 0.50061 46.25C0.50061 46.9938 1.06936 47.5625 1.81311 47.5625H12.5319H21.2819H35.5006C36.2444 47.5625 36.8131 46.9938 36.8131 46.25C36.8131 45.5062 36.2444 44.9375 35.5006 44.9375H22.244L18.744 34.4375H28.9381C29.6819 34.4375 30.2506 33.8688 30.2506 33.125V29.4498L33.4447 31.5938C33.6635 31.725 33.9256 31.8125 34.1881 31.8125C34.4069 31.8125 34.6258 31.7686 34.8008 31.6373C35.2383 31.4186 35.5006 30.9813 35.5006 30.5V19.125C35.5006 18.3813 34.9319 17.8125 34.1881 17.8125C33.4444 17.8125 32.8756 18.3813 32.8756 19.125V23.6752V24.9441C32.8756 25.6878 32.3069 26.2566 31.5631 26.2566C30.8194 26.2566 30.2506 25.6878 30.2506 24.9441V21.9252V18.4688C32.8756 16.6313 34.6256 13.6125 34.6256 10.1562C34.6256 4.6 30.1194 0.09375 24.5631 0.09375ZM24.5631 2.71875C28.6756 2.71875 32.0006 6.04375 32.0006 10.1562C32.0006 14.2687 28.6756 17.5938 24.5631 17.5938C20.4506 17.5938 17.1256 14.2687 17.1256 10.1562C17.1256 8.23125 17.869 6.43784 19.1815 5.03784C20.5815 3.55034 22.5069 2.71875 24.5631 2.71875ZM9.25061 7.09375C12.1381 7.09375 14.5006 9.45625 14.5006 12.3438C14.5006 15.2312 12.1381 17.5938 9.25061 17.5938C6.36311 17.5938 4.00061 15.2312 4.00061 12.3438C4.00061 9.45625 6.36311 7.09375 9.25061 7.09375ZM24.5631 7.96875C23.9829 7.96875 23.4265 8.19922 23.0163 8.60945C22.6061 9.01969 22.3756 9.57609 22.3756 10.1562C22.3756 10.7364 22.6061 11.2928 23.0163 11.703C23.4265 12.1133 23.9829 12.3438 24.5631 12.3438C25.1433 12.3438 25.6997 12.1133 26.1099 11.703C26.5201 11.2928 26.7506 10.7364 26.7506 10.1562C26.7506 9.57609 26.5201 9.01969 26.1099 8.60945C25.6997 8.19922 25.1433 7.96875 24.5631 7.96875ZM16.9069 37.2812L19.4447 44.9375H14.369L16.9069 37.2812Z" fill="white"/>
</svg>
